<svg width="116" height="77" viewBox="0 0 116 77" fill="none" xmlns="http://www.w3.org/2000/svg">
<g clip-path="url(#clip0_45_19)">
<path d="M42.9929 77.0003C42.1459 76.9952 41.3192 76.7415 40.6163 76.2708C39.9134 75.8 39.3656 75.1333 39.0414 74.354C38.7172 73.5748 38.631 72.7176 38.7937 71.8897C38.9563 71.0619 39.3606 70.3003 39.9558 69.7002L108.611 1.32934C112.654 -2.69683 118.709 3.32878 114.673 7.35885L46.0065 75.7297C45.6137 76.1296 45.145 76.4479 44.6277 76.666C44.1104 76.8841 43.5547 76.9977 42.9929 77.0003ZM25.8311 59.9056C24.693 59.906 23.601 59.4576 22.794 58.6584L1.33484 37.292C-2.70808 33.2659 3.3426 27.2364 7.38943 31.2664L28.8447 52.6172C29.4459 53.2122 29.8563 53.9715 30.0238 54.7989C30.1913 55.6263 30.1085 56.4847 29.7858 57.2652C29.463 58.0457 28.915 58.7132 28.2109 59.1833C27.5069 59.6533 26.6787 59.9047 25.8311 59.9056Z" fill="#2D95B5"/>
</g>
<defs>
<clipPath id="clip0_45_19">
<rect width="116" height="77" fill="white"/>
</clipPath>
</defs>
</svg>
