<svg width="61" height="61" viewBox="0 0 61 61" fill="none" xmlns="http://www.w3.org/2000/svg">
<g clip-path="url(#clip0_30_62)">
<path d="M16.606 30.8863H10.4262C10.2704 30.8804 10.115 30.9059 9.96924 30.9614C9.82352 31.017 9.69051 31.1013 9.57816 31.2094C9.4658 31.3176 9.37643 31.4473 9.31538 31.5908C9.25433 31.7342 9.22287 31.8886 9.22287 32.0445C9.22287 32.2004 9.25433 32.3548 9.31538 32.4982C9.37643 32.6417 9.4658 32.7714 9.57816 32.8796C9.69051 32.9877 9.82352 33.072 9.96924 33.1276C10.115 33.1831 10.2704 33.2086 10.4262 33.2027H16.606C16.7618 33.2086 16.9173 33.1831 17.063 33.1276C17.2087 33.072 17.3417 32.9877 17.4541 32.8796C17.5664 32.7714 17.6558 32.6417 17.7168 32.4982C17.7779 32.3548 17.8094 32.2004 17.8094 32.0445C17.8094 31.8886 17.7779 31.7342 17.7168 31.5908C17.6558 31.4473 17.5664 31.3176 17.4541 31.2094C17.3417 31.1013 17.2087 31.017 17.063 30.9614C16.9173 30.9059 16.7618 30.8804 16.606 30.8863ZM32.0496 49.4168H26.6442C26.3368 49.4168 26.042 49.5389 25.8246 49.7563C25.6073 49.9736 25.4852 50.2684 25.4852 50.5758C25.4852 50.8832 25.6073 51.178 25.8246 51.3953C26.042 51.6127 26.3368 51.7348 26.6442 51.7348H32.0496C32.357 51.7348 32.6518 51.6127 32.8692 51.3953C33.0865 51.178 33.2086 50.8832 33.2086 50.5758C33.2086 50.2684 33.0865 49.9736 32.8692 49.7563C32.6518 49.5389 32.357 49.4168 32.0496 49.4168ZM26.6442 42.4696H32.0496C32.2054 42.4755 32.3609 42.45 32.5066 42.3945C32.6523 42.339 32.7853 42.2546 32.8977 42.1465C33.01 42.0383 33.0994 41.9086 33.1604 41.7652C33.2215 41.6217 33.253 41.4673 33.253 41.3114C33.253 41.1555 33.2215 41.0012 33.1604 40.8577C33.0994 40.7142 33.01 40.5845 32.8977 40.4764C32.7853 40.3682 32.6523 40.2839 32.5066 40.2284C32.3609 40.1728 32.2054 40.1473 32.0496 40.1533H26.6442C26.3447 40.1647 26.0613 40.2918 25.8534 40.5077C25.6456 40.7236 25.5295 41.0117 25.5295 41.3114C25.5295 41.6111 25.6456 41.8992 25.8534 42.1151C26.0613 42.3311 26.3447 42.4581 26.6442 42.4696ZM16.606 49.4168H10.4262C10.1188 49.4168 9.82401 49.5389 9.60665 49.7563C9.38929 49.9736 9.26717 50.2684 9.26717 50.5758C9.26717 50.8832 9.38929 51.178 9.60665 51.3953C9.82401 51.6127 10.1188 51.7348 10.4262 51.7348H16.606C16.9134 51.7348 17.2082 51.6127 17.4256 51.3953C17.6429 51.178 17.765 50.8832 17.765 50.5758C17.765 50.2684 17.6429 49.9736 17.4256 49.7563C17.2082 49.5389 16.9134 49.4168 16.606 49.4168ZM16.606 40.1583H10.4262C10.2704 40.1524 10.115 40.1779 9.96924 40.2334C9.82352 40.289 9.69051 40.3733 9.57816 40.4814C9.4658 40.5896 9.37643 40.7193 9.31538 40.8628C9.25433 41.0062 9.22287 41.1606 9.22287 41.3165C9.22287 41.4724 9.25433 41.6268 9.31538 41.7702C9.37643 41.9137 9.4658 42.0434 9.57816 42.1516C9.69051 42.2597 9.82352 42.344 9.96924 42.3996C10.115 42.4551 10.2704 42.4806 10.4262 42.4747H16.606C16.7618 42.4806 16.9173 42.4551 17.063 42.3996C17.2087 42.344 17.3417 42.2597 17.4541 42.1516C17.5664 42.0434 17.6558 41.9137 17.7168 41.7702C17.7779 41.6268 17.8094 41.4724 17.8094 41.3165C17.8094 41.1606 17.7779 41.0062 17.7168 40.8628C17.6558 40.7193 17.5664 40.5896 17.4541 40.4814C17.3417 40.3733 17.2087 40.289 17.063 40.2334C16.9173 40.1779 16.7618 40.1524 16.606 40.1583Z" fill="#2D95B5"/>
<path d="M2.31806 21.6211H23.1603V33.2111H39.3766V58.6786H2.31298V21.6194L2.31806 21.6211ZM12.3562 13.1269V19.3048H2.31806V13.0472C2.44007 13.0913 12.3562 13.1252 12.3562 13.1252V13.1269ZM23.1654 13.1269V19.3048H14.6726V13.1269H23.1654ZM50.9652 33.2111V40.1583H41.698V33.2111H50.9652ZM50.9652 49.4219H41.698V42.4746H50.9652V49.4219ZM50.9652 58.6871H41.698V51.7399H50.9652V58.6871ZM59.8427 58.6871H53.2799V51.7399H59.8393C59.9951 51.7458 60.1505 51.7203 60.2962 51.6648C60.442 51.6092 60.575 51.5249 60.6873 51.4168C60.7997 51.3086 60.8891 51.1789 60.9501 51.0355C61.0112 50.892 61.0426 50.7376 61.0426 50.5817C61.0426 50.4258 61.0112 50.2714 60.9501 50.128C60.8891 49.9845 60.7997 49.8548 60.6873 49.7467C60.575 49.6385 60.442 49.5542 60.2962 49.4987C60.1505 49.4431 59.9951 49.4176 59.8393 49.4236H53.2799V42.4763H59.8393C59.9951 42.4823 60.1505 42.4567 60.2962 42.4012C60.442 42.3457 60.575 42.2614 60.6873 42.1532C60.7997 42.0451 60.8891 41.9154 60.9501 41.7719C61.0112 41.6284 61.0426 41.4741 61.0426 41.3182C61.0426 41.1622 61.0112 41.0079 60.9501 40.8644C60.8891 40.721 60.7997 40.5913 60.6873 40.4831C60.575 40.375 60.442 40.2906 60.2962 40.2351C60.1505 40.1796 59.9951 40.1541 59.8393 40.16H53.2799V33.2111H59.8393C60.1388 33.1997 60.4222 33.0726 60.63 32.8567C60.8379 32.6407 60.954 32.3527 60.954 32.053C60.954 31.7532 60.8379 31.4652 60.63 31.2492C60.4222 31.0333 60.1388 30.9063 59.8393 30.8948H53.2799V13.5132C53.2859 13.3574 53.2603 13.202 53.2048 13.0562C53.1493 12.9105 53.0649 12.7775 52.9568 12.6652C52.8487 12.5528 52.719 12.4634 52.5755 12.4024C52.432 12.3414 52.2776 12.3099 52.1217 12.3099C51.9658 12.3099 51.8114 12.3414 51.6679 12.4024C51.5245 12.4634 51.3948 12.5528 51.2866 12.6652C51.1785 12.7775 51.0941 12.9105 51.0386 13.0562C50.9831 13.202 50.9576 13.3574 50.9635 13.5132V30.8863H41.698V13.5132C41.704 13.3574 41.6785 13.202 41.6229 13.0562C41.5674 12.9105 41.4831 12.7775 41.3749 12.6652C41.2668 12.5528 41.1371 12.4634 40.9936 12.4024C40.8501 12.3414 40.6958 12.3099 40.5399 12.3099C40.3839 12.3099 40.2296 12.3414 40.0861 12.4024C39.9426 12.4634 39.8129 12.5528 39.7048 12.6652C39.5966 12.7775 39.5123 12.9105 39.4568 13.0562C39.4013 13.202 39.3757 13.3574 39.3817 13.5132V30.8863H25.4868V5.79161C25.4868 5.48423 25.3647 5.18943 25.1474 4.97207C24.93 4.75472 24.6352 4.63261 24.3278 4.63261C24.0204 4.63261 23.7256 4.75472 23.5083 4.97207C23.2909 5.18943 23.1688 5.48423 23.1688 5.79161V10.8106H14.6726V5.79161C14.6786 5.63579 14.653 5.48037 14.5975 5.33466C14.542 5.18895 14.4576 5.05593 14.3495 4.94358C14.2414 4.83124 14.1117 4.74186 13.9682 4.68082C13.8247 4.61977 13.6704 4.5883 13.5144 4.5883C13.3585 4.5883 13.2041 4.61977 13.0607 4.68082C12.9172 4.74186 12.7875 4.83124 12.6793 4.94358C12.5712 5.05593 12.4869 5.18895 12.4313 5.33466C12.3758 5.48037 12.3503 5.63579 12.3562 5.79161V10.8106C12.3562 10.8106 2.44007 10.8444 2.31806 10.8868V1.159C2.31806 0.851614 2.19595 0.556818 1.97859 0.339463C1.76123 0.122109 1.46643 0 1.15903 0C0.851638 0 0.556833 0.122109 0.339473 0.339463C0.122112 0.556818 4.58053e-09 0.851614 0 1.159V58.6837C0.000897365 59.298 0.245463 59.8869 0.680039 60.3212C1.11461 60.7554 1.70371 60.9995 2.31806 61H59.8427C60.1422 60.9885 60.4256 60.8615 60.6334 60.6456C60.8413 60.4296 60.9574 60.1416 60.9574 59.8418C60.9574 59.5421 60.8413 59.2541 60.6334 59.0381C60.4256 58.8222 60.1422 58.6951 59.8427 58.6837V58.6871Z" fill="#2D95B5"/>
</g>
<defs>
<clipPath id="clip0_30_62">
<rect width="61" height="61" fill="white"/>
</clipPath>
</defs>
</svg>
