<svg width="184" height="269" viewBox="0 0 184 269" fill="none" xmlns="http://www.w3.org/2000/svg">
<g clip-path="url(#clip0_72_11)">
<path d="M109.097 254.876H74.9033C65.4252 254.876 65.4252 269 74.9033 269H109.097C118.575 269 118.575 254.876 109.097 254.876ZM118.072 234.585H65.6954C63.8012 234.589 61.9857 235.343 60.6463 236.682C59.3069 238.02 58.5525 239.834 58.5484 241.727C58.5243 242.671 58.6928 243.61 59.0435 244.488C59.3941 245.365 59.9197 246.162 60.5882 246.83C61.2567 247.498 62.0542 248.023 62.9322 248.373C63.8101 248.724 64.7503 248.892 65.6954 248.868H118.087C119.032 248.891 119.972 248.722 120.85 248.372C121.727 248.021 122.525 247.496 123.193 246.828C123.861 246.16 124.387 245.364 124.738 244.487C125.089 243.61 125.258 242.671 125.234 241.727C125.23 239.831 124.474 238.015 123.131 236.676C121.788 235.337 119.969 234.585 118.072 234.585ZM66.6543 227.222H117.219C118.153 227.223 119.079 227.04 119.943 226.683C120.807 226.326 121.592 225.803 122.253 225.142C122.914 224.482 123.438 223.698 123.795 222.834C124.152 221.971 124.335 221.046 124.334 220.112C124.37 219.167 124.211 218.225 123.867 217.344C123.522 216.464 123 215.663 122.332 214.993C121.665 214.323 120.866 213.798 119.986 213.45C119.106 213.102 118.164 212.939 117.219 212.971H66.6543C65.7086 212.939 64.7664 213.102 63.8866 213.45C63.0067 213.798 62.2081 214.323 61.5405 214.993C60.8729 215.663 60.3506 216.464 60.0062 217.344C59.6619 218.225 59.5029 219.167 59.5391 220.112C59.5377 221.046 59.7208 221.971 60.0779 222.834C60.4349 223.698 60.959 224.482 61.62 225.142C62.281 225.803 63.0659 226.326 63.9298 226.683C64.7937 227.04 65.7195 227.223 66.6543 227.222ZM73.1709 190.477C68.8491 190.486 64.6651 188.959 61.3669 186.168C58.0301 183.289 55.7021 179.42 54.7232 175.125C54.0524 171.367 52.8538 167.722 51.1629 164.299C49.4107 160.619 47.1708 157.192 44.5033 154.109L38.3788 145.612C24.859 130.633 16.3413 111.82 14.0079 91.7846C14.0079 -11.6884 169.351 -11.6884 169.351 91.7846C166.771 111.917 157.953 130.738 144.132 145.612L137.992 154.357C135.639 157.384 133.731 160.732 132.328 164.299C131.454 166.287 130.759 168.35 130.252 170.461C129.646 171.987 129.152 173.555 128.774 175.152C127.642 179.384 125.339 183.211 122.13 186.194C118.775 188.886 114.627 190.401 110.326 190.504L73.1709 190.477ZM183.746 91.7846C183.746 -30.5926 0 -30.5926 0 91.7846C2.24175 115.051 12.0507 136.942 27.9258 154.109L34.3205 162.351C35.9167 164.707 37.276 167.214 38.3788 169.837C39.5547 172.499 40.5029 175.257 41.2132 178.079V180.88C41.9632 183.648 43.1662 186.274 44.7735 188.651C45.994 190.392 47.351 192.032 48.8318 193.558C50.0609 193.558 50.6596 195.887 51.8887 196.862C57.6913 201.794 65.0817 204.465 72.6993 204.384H111.174C118.367 204.17 125.287 201.58 130.852 197.02C136.418 192.46 140.314 186.187 141.934 179.18C143.157 173.484 145.497 168.086 148.821 163.299L155.232 155.109C171.66 137.773 181.791 115.43 184 91.6575L183.746 91.7846Z" fill="#2D95B5"/>
<path d="M122.856 106.162V89.709C122.856 87.8219 122.106 86.0119 120.773 84.6761C119.439 83.3403 117.629 82.5877 115.74 82.5835C113.872 82.6542 112.099 83.4277 110.776 84.7489C109.454 86.0702 108.68 87.8418 108.609 89.709V106.162C108.474 108.177 107.938 110.146 107.034 111.952C106.13 113.759 104.875 115.367 103.342 116.685C101.81 118.002 100.031 119.002 98.1079 119.626C96.1853 120.249 94.1576 120.485 92.143 120.318C88.049 120.648 83.991 119.343 80.8573 116.69C77.7236 114.037 75.7694 110.252 75.4225 106.162V89.709C75.4225 80.2383 61.2556 80.2383 61.2556 89.709V106.162C64.5775 143.791 119.55 143.791 122.856 106.162Z" fill="#2D95B5"/>
</g>
<defs>
<clipPath id="clip0_72_11">
<rect width="184" height="269" fill="white"/>
</clipPath>
</defs>
</svg>
