<svg width="60" height="60" viewBox="0 0 60 60" fill="none" xmlns="http://www.w3.org/2000/svg">
<g clip-path="url(#clip0_17_3)">
<path d="M45.7345 7.43815L6.15594 47.02L12.9947 53.8593L52.5732 14.2774L45.7345 7.43815Z" fill="#2D95B5"/>
<path d="M45.7244 7.43238L42.9017 10.2553L49.7405 17.0946L52.5631 14.2717L45.7244 7.43238Z" fill="#2D95B5"/>
<path d="M10.6719 24.3333L35.6698 49.3333H10.6719V24.3333ZM0.999939 0.994995V59H59.0001L0.999939 0.994995Z" fill="#F74B50"/>
<path d="M54.9999 59L0.999939 4.99555V0.994995L59.0001 59H54.9999Z" fill="#D13F44"/>
<path d="M19.88 48.3333L26.5517 41.6717L33.2133 48.3333H19.88ZM11.6307 42.9117L19.7067 34.8333L25.1296 40.2661L17.0519 48.3333H11.6718L11.6307 42.9117ZM18.3024 33.42L11.6307 40.0811V26.7478L18.3024 33.42ZM27.3016 39.5511L11.3957 23.6422C10.7652 23.0233 9.69696 23.47 9.69696 24.3517V49.3517C9.69696 49.6169 9.80231 49.8712 9.98983 50.0588C10.1774 50.2463 10.4317 50.3517 10.6969 50.3517H35.6948C36.5836 50.3461 37.0241 49.2833 36.4042 48.6528L27.3066 39.5661L27.3016 39.5511Z" fill="#2C2A3D"/>
<path d="M43.9997 58.0001V56.0001C43.9997 54.6668 41.9998 54.6668 41.9998 56.0001V58.0001H36.0003V56.0001C36.0003 54.6668 34.0005 54.6668 34.0005 56.0001V58.0001H28.001V56.0001C28.001 54.6668 26.0012 54.6668 26.0012 56.0001V58.0001H20.0017V56.0001C20.0017 54.6668 18.0018 54.6668 18.0018 56.0001V58.0001H12.0023V56.0001C12.0023 54.6668 10.0025 54.6668 10.0025 56.0001V58.0001H2.00317V49.0001H4.003C5.33622 49.0001 5.33622 47.0001 4.003 47.0001H2.00317V41.0001H4.003C5.33622 41.0001 5.33622 39.0001 4.003 39.0001H2.00317V33.0001H4.003C5.33622 33.0001 5.33622 31.0001 4.003 31.0001H2.00317V25.0001H4.003C5.33622 25.0001 5.33622 23.0001 4.003 23.0001H2.00317V17.0001H4.003C5.33622 17.0001 5.33622 15.0001 4.003 15.0001H2.00317V3.40734L56.5881 58.0001H43.9997ZM45.7079 8.85067L51.1402 14.2829L48.0732 17.3512L46.6489 15.9284C46.5585 15.826 46.4481 15.7431 46.3245 15.685C46.2008 15.6268 46.0666 15.5946 45.93 15.5904C45.7934 15.5862 45.6574 15.61 45.5304 15.6603C45.4034 15.7107 45.2881 15.7866 45.1915 15.8832C45.095 15.9799 45.0192 16.0954 44.969 16.2224C44.9188 16.3495 44.8952 16.4855 44.8996 16.6221C44.904 16.7587 44.9363 16.8929 44.9946 17.0165C45.0529 17.1401 45.1359 17.2504 45.2385 17.3407L46.6489 18.7618L42.4215 22.9968L40.9999 21.5851C40.9072 21.4918 40.7971 21.4176 40.6757 21.3668C40.5544 21.316 40.4242 21.2897 40.2927 21.2892C40.1611 21.2888 40.0308 21.3142 39.9091 21.3641C39.7874 21.414 39.6767 21.4874 39.5834 21.5801C39.49 21.6728 39.4159 21.783 39.3651 21.9043C39.3143 22.0257 39.288 22.1559 39.2875 22.2874C39.287 22.419 39.3125 22.5493 39.3624 22.671C39.4123 22.7927 39.4857 22.9034 39.5784 22.9968L40.9999 24.4185L36.7608 28.659L35.3387 27.2373C34.3905 26.289 32.9734 27.7107 33.9172 28.659L35.3387 30.0707L33.4211 32.0001L27.9999 26.5779L45.7079 8.85067ZM59.7067 58.2918L34.8277 33.419L53.2706 14.9962C53.3645 14.9032 53.439 14.7926 53.4898 14.6706C53.5407 14.5487 53.5669 14.4178 53.5669 14.2857C53.5669 14.1535 53.5407 14.0227 53.4898 13.9007C53.439 13.7788 53.3645 13.6681 53.2706 13.5751L46.4317 6.72512C46.3387 6.63122 46.2281 6.55668 46.1061 6.50582C45.9841 6.45495 45.8533 6.42876 45.7212 6.42876C45.5891 6.42876 45.4582 6.45495 45.3363 6.50582C45.2143 6.55668 45.1037 6.63122 45.0107 6.72512L26.5783 25.1668L1.70819 0.286781C1.56733 0.149103 1.38914 0.0558311 1.19574 0.0185455C1.00234 -0.0187401 0.802245 0.00160265 0.620303 0.0770482C0.438361 0.152494 0.282583 0.279719 0.172308 0.44293C0.0620322 0.606141 0.00211693 0.798148 0 0.995115V59.0001C0 59.2653 0.105348 59.5197 0.292869 59.7072C0.48039 59.8948 0.734722 60.0001 0.999917 60.0001H59.0001C59.1972 59.9985 59.3896 59.9389 59.5532 59.8289C59.7168 59.7189 59.8445 59.5633 59.9205 59.3814C59.9964 59.1994 60.0173 58.9992 59.9805 58.8055C59.9437 58.6118 59.8508 58.4332 59.7134 58.2918H59.7067Z" fill="#2C2A3D"/>
</g>
<defs>
<clipPath id="clip0_17_3">
<rect width="60" height="60" fill="white"/>
</clipPath>
</defs>
</svg>
