<svg width="79" height="63" viewBox="0 0 79 63" fill="none" xmlns="http://www.w3.org/2000/svg">
<path d="M75.6379 54.9649C75.6379 55.9098 75.2831 56.8334 74.6185 57.6191C73.9539 58.4047 73.0093 59.0171 71.9041 59.3787C70.7989 59.7402 69.5827 59.8349 68.4095 59.6505C67.2362 59.4662 66.1584 59.0112 65.3126 58.343C64.4667 57.6749 63.8906 56.8236 63.6572 55.8969C63.4238 54.9702 63.5436 54.0096 64.0014 53.1366C64.4592 52.2637 65.2345 51.5175 66.2291 50.9926C67.2238 50.4676 68.3932 50.1875 69.5894 50.1875C70.3849 50.1842 71.1732 50.3056 71.9089 50.5445C72.6446 50.7835 73.313 51.1353 73.8755 51.5795C74.4379 52.0238 74.8833 52.5517 75.1858 53.1328C75.4883 53.7139 75.642 54.3366 75.6379 54.9649ZM60.1758 54.9649C60.1758 56.9366 61.1674 58.8275 62.9325 60.2217C64.6977 61.6159 67.0917 62.3992 69.5879 62.3992C72.0841 62.3992 74.4781 61.6159 76.2433 60.2217C78.0084 58.8275 79 56.9366 79 54.9649C79 51.2441 75.6379 48.196 71.2697 47.6635V16.9977C71.2697 16.2135 71.0742 15.4369 70.6942 14.7124C70.3143 13.9879 69.7574 13.3295 69.0553 12.775C68.3532 12.2205 67.5198 11.7806 66.6025 11.4805C65.6852 11.1804 64.7021 11.0259 63.7092 11.0259C62.7163 11.0259 61.7332 11.1804 60.8159 11.4805C59.8986 11.7806 59.0651 12.2205 58.3631 12.775C57.661 13.3295 57.1041 13.9879 56.7242 14.7124C56.3442 15.4369 56.1487 16.2135 56.1487 16.9977V36.779C56.1513 37.2501 56.0358 37.7169 55.8088 38.1526C55.5817 38.5883 55.2477 38.9841 54.8259 39.3172C54.4041 39.6504 53.903 39.9142 53.3514 40.0936C52.7999 40.2729 52.2088 40.3641 51.6123 40.362C50.5751 40.3611 49.5479 40.5217 48.5895 40.8348C47.631 41.1478 46.7601 41.6072 46.0267 42.1864C45.2933 42.7657 44.7118 43.4536 44.3155 44.2106C43.9191 44.9677 43.7157 45.7791 43.717 46.5983V52.4421C43.717 54.4138 42.7253 56.3047 40.9602 57.6989C39.1951 59.0931 36.8011 59.8764 34.3049 59.8764C31.8086 59.8764 29.4146 59.0931 27.6495 57.6989C25.8844 56.3047 24.8928 54.4138 24.8928 52.4421V37.9684C36.8261 37.3055 46.2366 29.3386 46.2366 19.7837V5.97183C46.2405 5.18675 46.0476 4.40883 45.669 3.68291C45.2904 2.957 44.7337 2.29746 44.0308 1.74231C43.328 1.18717 42.493 0.74741 41.574 0.448384C40.6549 0.149358 39.67 -0.0030168 38.6761 4.52494e-05V2.65566C39.2279 2.65257 39.7751 2.7363 40.2855 2.90198C40.796 3.06766 41.2595 3.31196 41.6492 3.62065C42.0389 3.92933 42.3468 4.29621 42.555 4.69989C42.7633 5.10356 42.8677 5.53595 42.8622 5.97183V19.7837C42.8622 28.4136 33.9484 35.4518 23.0227 35.4518C12.0969 35.4518 3.36218 28.282 3.36218 19.7837V5.97183C3.35786 5.5354 3.46351 5.10265 3.67298 4.69877C3.88244 4.29489 4.19153 3.92797 4.58225 3.61935C4.97297 3.31074 5.43752 3.0666 5.94884 2.90115C6.46016 2.7357 7.00805 2.65226 7.56059 2.65566V4.52494e-05C6.5667 -0.00285458 5.58191 0.149631 4.66296 0.448714C3.74402 0.747798 2.90909 1.18757 2.2063 1.74268C1.5035 2.29779 0.946738 2.95726 0.568086 3.6831C0.189433 4.40894 -0.00361991 5.1868 5.13949e-05 5.97183V19.7837C5.13949e-05 29.4775 9.41216 37.3055 21.5198 37.9684V52.3105C21.5013 53.6446 21.8179 54.9684 22.4514 56.2052C23.0849 57.442 24.0228 58.5672 25.2106 59.5158C26.3984 60.4644 27.8127 61.2175 29.3714 61.7314C30.9302 62.2454 32.6026 62.51 34.2917 62.51C35.9809 62.51 37.6533 62.2454 39.212 61.7314C40.7708 61.2175 42.1851 60.4644 43.3729 59.5158C44.5607 58.5672 45.4985 57.442 46.1321 56.2052C46.7656 54.9684 47.0822 53.6446 47.0637 52.3105V46.4679C47.0608 45.9969 47.1761 45.5301 47.403 45.0945C47.6299 44.6589 47.9638 44.2631 48.3855 43.9301C48.8072 43.597 49.3082 43.3333 49.8597 43.1541C50.4111 42.9749 51.0021 42.8838 51.5984 42.886C52.6358 42.887 53.6632 42.7263 54.6219 42.4132C55.5805 42.1001 56.4516 41.6407 57.1851 41.0613C57.9187 40.4819 58.5003 39.7939 58.8967 39.0367C59.2931 38.2795 59.4966 37.4679 59.4953 36.6486V16.9977C59.4846 16.5565 59.5854 16.118 59.7918 15.7079C59.9982 15.2978 60.306 14.9243 60.6973 14.6092C61.0886 14.2942 61.5554 14.0439 62.0706 13.8731C62.5858 13.7023 63.1389 13.6143 63.6976 13.6143C64.2564 13.6143 64.8095 13.7023 65.3246 13.8731C65.8398 14.0439 66.3067 14.2942 66.698 14.6092C67.0892 14.9243 67.3971 15.2978 67.6034 15.7079C67.8098 16.118 67.9106 16.5565 67.8999 16.9977V47.6647C63.5318 48.1973 60.1758 51.2453 60.1758 54.9649Z" fill="#2D95B5"/>
</svg>
