<svg width="84" height="61" viewBox="0 0 84 61" fill="none" xmlns="http://www.w3.org/2000/svg">
<g clip-path="url(#clip0_30_60)">
<path d="M77.0001 60.9951H7.0012C5.96363 60.9946 4.93913 60.7658 4.0017 60.3254C3.06427 59.885 2.2373 59.244 1.58052 58.4486C0.92374 57.6532 0.453537 56.7233 0.20387 55.726C-0.0457974 54.7287 -0.0686965 53.689 0.136826 52.6819H32.2012C34.0666 52.6819 34.0666 55.4535 32.2012 55.4535H3.0473C3.33549 56.2646 3.8704 56.9674 4.57844 57.4652C5.28648 57.963 6.13287 58.2313 7.0012 58.2333H77.0001C77.8682 58.2339 78.715 57.9674 79.4233 57.4705C80.1317 56.9737 80.6666 56.2711 80.954 55.46H51.8001C49.9347 55.46 49.9347 52.6884 51.8001 52.6884H83.8645C84.0689 53.695 84.0452 54.734 83.795 55.7305C83.5448 56.727 83.0744 57.656 82.4178 58.4506C81.7611 59.2453 80.9345 59.8857 79.9977 60.3257C79.0608 60.7657 78.037 60.9944 77.0001 60.9951ZM77.0001 49.9038C76.629 49.9038 76.273 49.7578 76.0106 49.4979C75.7481 49.238 75.6007 48.8855 75.6007 48.518V2.77324H8.40066V48.5228C8.40066 50.3717 5.60011 50.3717 5.60011 48.5228V2.77324C5.60011 2.03773 5.89516 1.33235 6.42037 0.812264C6.94557 0.29218 7.6579 0 8.40066 0H75.6007C76.3434 0 77.0557 0.29218 77.5809 0.812264C78.1061 1.33235 78.4012 2.03773 78.4012 2.77324V48.5228C78.4008 48.8905 78.253 49.243 77.9903 49.5029C77.7276 49.7627 77.3714 49.9087 77.0001 49.9087V49.9038Z" fill="#2D95B5"/>
</g>
<defs>
<clipPath id="clip0_30_60">
<rect width="84" height="61" fill="white"/>
</clipPath>
</defs>
</svg>
