<svg width="29" height="26" viewBox="0 0 29 26" fill="none" xmlns="http://www.w3.org/2000/svg">
<path d="M4.32 12.92C5.76 13.528 6.48 14.528 6.48 15.92V20.84C6.48 21.08 6.56 21.28 6.72 21.44C6.88 21.6 7.08 21.68 7.32 21.68H8.88V25.04H5.76C4.672 25.04 3.8 24.712 3.144 24.056C2.488 23.4 2.16 22.528 2.16 21.44V15.44C2.16 15.2 2.08 15 1.92 14.84C1.76 14.68 1.56 14.6 1.32 14.6H0.24V11.24H1.32C1.56 11.24 1.76 11.16 1.92 11C2.08 10.84 2.16 10.64 2.16 10.4V4.4C2.16 3.312 2.488 2.44 3.144 1.784C3.8 1.128 4.672 0.8 5.76 0.8H8.88V4.16H7.32C7.08 4.16 6.88 4.24 6.72 4.4C6.56 4.56 6.48 4.76 6.48 5V9.92C6.48 11.312 5.76 12.312 4.32 12.92ZM8.88281 20L16.0828 3.2H20.1628L13.2028 20H8.88281ZM24.7163 12.92C23.2763 12.312 22.5563 11.312 22.5563 9.92V5C22.5563 4.76 22.4763 4.56 22.3163 4.4C22.1563 4.24 21.9563 4.16 21.7163 4.16H20.1562V0.8H23.2763C24.3643 0.8 25.2363 1.128 25.8923 1.784C26.5483 2.44 26.8763 3.312 26.8763 4.4V10.4C26.8763 10.64 26.9563 10.84 27.1163 11C27.2763 11.16 27.4763 11.24 27.7163 11.24H28.7963V14.6H27.7163C27.4763 14.6 27.2763 14.68 27.1163 14.84C26.9563 15 26.8763 15.2 26.8763 15.44V21.44C26.8763 22.528 26.5483 23.4 25.8923 24.056C25.2363 24.712 24.3643 25.04 23.2763 25.04H20.1562V21.68H21.7163C21.9563 21.68 22.1563 21.6 22.3163 21.44C22.4763 21.28 22.5563 21.08 22.5563 20.84V15.92C22.5563 14.528 23.2763 13.528 24.7163 12.92Z" fill="#5125FF"/>
</svg>
